#!OML:ASF F:\Work\Patient Classification 1\justin\Session 1\justin.ASF
:FULLY-SPECIFIED
:DEGREES
4957
root 2.66643 16.7088 2.43834 5.67329 11.6508 3.2058
lowerback 12.3884 -10.8958 -5.5251
upperback -0.432666 -14.8108 9.42125
thorax -3.2635 -7.36046 15.2067
lowerneck -15.0103 -0.465759 -10.1904
upperneck 13.6989 -0.713126 13.89
head 6.71539 0.29982 6.19455
rclavicle -8.82604e-014 6.52014e-014
rhumerus -59.2151 -25.7184 12.1991
rradius 91.1907
rwrist -48.8783
rhand -10.5338 23.5507
rfingers 7.12502
rthumb 15.4696 -5.8504
lclavicle -8.82604e-014 6.52014e-014
lhumerus -18.5347 17.2391 73.8892
lradius 138.508
lwrist 14.4274
lhand -15.0798 10.0755
lfingers 7.12502
lthumb 11.0878 39.7626
rfemur -47.8489 9.75213 3.04577
rtibia 33.6023
rfoot -8.19972 3.87411
rtoes -18.9083
lfemur 8.86685 22.055 -21.6339
ltibia 32.7216
lfoot -26.7145 13.7747
ltoes -31.7294
4958
root 2.6783 16.6572 2.54316 5.96166 11.272 3.46905
lowerback 12.4275 -10.997 -5.60158
upperback -0.313563 -14.9547 9.65738
thorax -3.02429 -7.46426 15.5092
lowerneck -15.3613 -0.102193 -10.5032
upperneck 13.4218 -0.0338673 13.584
head 6.59795 0.595726 6.20367
rclavicle 4.77083e-014 -1.27222e-014
rhumerus -59.5294 -25.5133 11.5049
rradius 89.0164
rwrist -48.7039
rhand -9.82562 23.5089
rfingers 7.12502
rthumb 16.1516 -5.83811
lclavicle 4.77083e-014 -1.27222e-014
lhumerus -19.8436 19.5172 72.2861
lradius 139.506
lwrist 16.039
lhand -14.1818 11.2348
lfingers 7.12502
lthumb 11.9538 40.8735
rfemur -48.4786 9.82251 2.73659
rtibia 34.0808
rfoot -7.6618 5.10351
rtoes -19.7263
lfemur 9.08904 22.1601 -21.9085
ltibia 32.6374
lfoot -27.1454 13.8827
ltoes -31.749
4959
root 2.68773 16.6012 2.64428 6.30589 10.9197 3.4985
lowerback 12.7068 -10.9288 -5.28655
upperback -0.382633 -14.7997 9.88113
thorax -3.31142 -7.36484 15.6812
lowerneck -15.6804 0.00403719 -10.3856
upperneck 13.1477 0.247131 12.9212
head 6.53139 0.692202 5.97998
rclavicle 2.38542e-015 -7.95139e-015
rhumerus -60.435 -24.9068 11.1165
rradius 86.9334
rwrist -48.7266
rhand -8.83519 23.4046
rfingers 7.12502
rthumb 17.1051 -5.86238
lclavicle 2.38542e-015 -7.95139e-015
lhumerus -21.3316 21.1509 70.7317
lradius 140.441
lwrist 17.6539
lhand -13.5374 12.0036
lfingers 7.12502
lthumb 12.5751 41.6052
rfemur -49.1824 9.7332 2.763
rtibia 34.5507
rfoot -6.9408 6.57252
rtoes -19.9644
lfemur 9.11755 22.1608 -21.9981
ltibia 32.7273
lfoot -27.7017 13.8955
ltoes -31.4029
4960
root 2.69173 16.5358 2.74669 6.7122 10.5807 3.39961
lowerback 13.0603 -10.8011 -4.76845
upperback -0.640123 -14.5192 10.1119
thorax -3.93049 -7.16717 15.8004
lowerneck -15.7959 0.0567501 -10.248
upperneck 12.8686 0.443003 12.1739
head 6.44089 0.73575 5.71423
rclavicle 1.06549e-013 -6.36111e-015
rhumerus -61.5139 -24.0381 10.7547
rradius 84.8168
rwrist -48.7446
rhand -7.81003 23.559
rfingers 7.12502
rthumb 18.0916 -5.61961
lclavicle 1.06549e-013 -6.36111e-015
lhumerus -23.1974 22.2816 69.2354
lradius 141.066
lwrist 18.4801
lhand -13.7982 11.2932
lfingers 7.12502
lthumb 12.3236 40.9101
rfemur -49.983 9.57131 2.97902
rtibia 35.1614
rfoot -5.61572 8.09973
rtoes -19.2569
lfemur 9.05809 22.1118 -21.9722
ltibia 32.7729
lfoot -28.1707 14.0651
ltoes -31.1348
4961
root 2.68856 16.4622 2.84967 7.18977 10.1945 3.28784
lowerback 13.2081 -10.7766 -4.43484
upperback -0.860436 -14.4059 10.4384
thorax -4.2751 -7.08134 16.0738
lowerneck -15.7164 0.346901 -10.4364
upperneck 12.5184 0.998878 11.5685
head 6.25078 0.944735 5.57963
rclavicle -2.78299e-014 5.725e-014
rhumerus -61.9368 -23.2504 9.94808
rradius 82.536
rwrist -48.8456
rhand -7.30205 23.6917
rfingers 7.12502
rthumb 18.5803 -5.44098
lclavicle -2.78299e-014 5.725e-014
lhumerus -25.1053 23.7321 67.6597
lradius 141.741
lwrist 19.1754
lhand -13.9432 11.3277
lfingers 7.12502
lthumb 12.1839 40.9528
rfemur -50.9189 9.92646 2.88155
rtibia 35.883
rfoot -3.57626 8.85877
rtoes -15.8986
lfemur 8.85454 22.089 -21.9456
ltibia 32.881
lfoot -28.6656 14.3394
ltoes -31.0376
4962
root 2.69859 16.3854 2.98084 7.48609 10.0218 3.75128
lowerback 13.0002 -10.9012 -4.65521
upperback -0.867611 -14.6089 10.5868
thorax -4.01212 -7.20807 16.3181
lowerneck -15.2614 0.772737 -10.8104
upperneck 11.8095 1.71838 11.2304
head 5.86432 1.24154 5.55949
rclavicle -7.4743e-014 -5.88403e-014
rhumerus -62.0902 -22.4421 8.80302
rradius 80.4048
rwrist -49.689
rhand -6.87328 23.6004
rfingers 7.12502
rthumb 18.9927 -5.49235
lclavicle -7.4743e-014 -5.88403e-014
lhumerus -26.9083 25.4022 66.004
lradius 142.618
lwrist 20.2977
lhand -13.675 12.4418
lfingers 7.12502
lthumb 12.4424 42.0515
rfemur -51.415 9.80241 2.32368
rtibia 36.7828
rfoot -2.20844 10.1019
rtoes -18.0011
lfemur 9.19171 22.0511 -22.3168
ltibia 32.9445
lfoot -29.2997 14.6092
ltoes -31.8743
4963
root 2.70227 16.3179 3.09629 7.87528 9.93511 3.95806
lowerback 13.1124 -11.1516 -4.89465
upperback -1.16696 -14.9664 10.9213
thorax -4.13329 -7.37286 16.9353
lowerneck -14.1718 1.37913 -11.1711
upperneck 10.9481 2.61895 10.825
head 5.30631 1.61484 5.50367
rclavicle -3.73715e-014 -1.43125e-014
rhumerus -61.3433 -19.4412 6.37963
rradius 79.5949
rwrist -51.8355
rhand -8.11835 22.9536
rfingers 7.12502
rthumb 17.795 -6.25218
lclavicle -3.73715e-014 -1.43125e-014
lhumerus -29.5384 27.2417 63.9718
lradius 143.399
lwrist 21.5278
lhand -13.4974 12.9589
lfingers 7.12502
lthumb 12.6136 42.5581
rfemur -52.2434 9.54012 2.07007
rtibia 37.8271
rfoot 1.06535 10.6615
rtoes -18.1867
lfemur 9.25614 21.8994 -22.4939
ltibia 33.0388
lfoot -29.7583 15.03
ltoes -33.0409
4964
root 2.70812 16.2427 3.19742 8.39276 9.65645 4.06585
lowerback 13.2546 -10.8086 -4.36362
upperback -1.15772 -14.4004 10.9063
thorax -4.51273 -7.054 16.65
lowerneck -15.029 1.24325 -10.7546
upperneck 10.7119 2.51151 10.3452
head 5.40317 1.56595 5.28295
rclavicle 2.22639e-014 0
rhumerus -62.8931 -18.4485 5.24539
rradius 77.8105
rwrist -52.2295
rhand -7.99207 23.1565
rfingers 7.12502
rthumb 17.9165 -6.0382
lclavicle 2.22639e-014 0
lhumerus -30.28 27.5954 63.0933
lradius 143.667
lwrist 22.2179
lhand -13.4178 12.8444
lfingers 7.12502
lthumb 12.6904 42.4388
rfemur -53.5652 9.01156 2.12629
rtibia 39.1777
rfoot 4.49302 11.3133
rtoes -12.8001
lfemur 9.11683 21.6671 -22.8199
ltibia 33.0496
lfoot -30.1586 15.4652
ltoes -33.4484
4965
root 2.71152 16.1616 3.30433 8.84755 9.40234 4.15611
lowerback 13.5561 -10.4769 -3.95343
upperback -1.44158 -13.8494 11.0558
thorax -5.21374 -6.70538 16.712
lowerneck -15.0542 1.13984 -10.8933
upperneck 10.3892 2.49511 9.79565
head 5.31534 1.51567 5.11661
rclavicle -2.40132e-013 3.81667e-014
rhumerus -64.0908 -17.5638 4.53846
rradius 75.5598
rwrist -52.3116
rhand -6.92467 23.4976
rfingers 7.12502
rthumb 18.9433 -5.59992
lclavicle -2.40132e-013 3.81667e-014
lhumerus -31.8806 27.8574 62.4485
lradius 144.15
lwrist 22.8181
lhand -13.4185 12.7208
lfingers 7.12502
lthumb 12.6897 42.3152
rfemur -54.9225 8.20762 2.5436
rtibia 40.8438
rfoot 6.28074 12.671
rtoes -8.98801
lfemur 9.06362 21.3492 -23.0724
ltibia 33.1278
lfoot -30.8402 15.4179
ltoes -32.7222
4966
root 2.71783 16.0896 3.4197 9.19501 9.49864 4.28331
lowerback 13.9883 -10.4661 -3.73508
upperback -1.58027 -13.7646 11.2246
thorax -5.63535 -6.62197 16.9319
lowerneck -15.771 1.32227 -10.4886
upperneck 10.3985 2.83424 8.9898
head 5.41918 1.65112 4.82933
rclavicle 1.06549e-013 -3.49861e-014
rhumerus -64.5268 -16.8526 2.91688
rradius 73.5683
rwrist -52.5826
rhand -6.59867 23.4261
rfingers 7.12502
rthumb 19.2568 -5.64054
lclavicle 1.06549e-013 -3.49861e-014
lhumerus -33.4423 28.7406 61.3849
lradius 144.605
lwrist 23.4288
lhand -13.6971 12.1462
lfingers 7.12502
lthumb 12.4212 41.7572
rfemur -56.0915 6.9583 3.1811
rtibia 42.9026
rfoot 5.9016 13.9814
rtoes -10.38
lfemur 9.24054 20.8843 -23.1463
ltibia 33.1609
lfoot -31.5617 14.9952
ltoes -31.5608
4967
root 2.73052 16.0225 3.52917 9.55153 9.75817 4.55317
lowerback 14.2438 -10.3596 -3.50738
upperback -1.64249 -13.5536 11.3536
thorax -5.92693 -6.48836 17.0285
lowerneck -16.3371 1.35035 -10.3721
upperneck 10.191 2.99428 8.36914
head 5.44374 1.6992 4.62823
rclavicle -3.89618e-014 2.54444e-014
rhumerus -65.5193 -16.6129 1.75174
rradius 71.6332
rwrist -52.5798
rhand -6.35726 23.2262
rfingers 7.12502
rthumb 19.4889 -5.81704
lclavicle -3.89618e-014 2.54444e-014
lhumerus -34.2174 29.2063 61.0387
lradius 144.942
lwrist 23.6141
lhand -14.3208 11.7627
lfingers 7.12502
lthumb 11.8197 41.4091
rfemur -57.2824 5.44056 3.69064
rtibia 45.264
rfoot 4.3822 15.0697
rtoes -12.9026
lfemur 9.37255 20.3338 -23.3626
ltibia 33.2035
lfoot -31.8712 15.135
ltoes -31.6252
4968
root 2.74548 15.9527 3.63222 9.9219 9.9454 5.13322
lowerback 13.6569 -10.0984 -3.74626
upperback -0.939708 -13.2852 11.3984
thorax -4.84305 -6.47247 16.9125
lowerneck -17.5355 1.11602 -10.468
upperneck 9.34142 2.90776 7.91396
head 5.38806 1.65012 4.49399
rclavicle 1.49486e-013 -6.36111e-015
rhumerus -67.015 -18.7567 1.18827
rradius 69.2534
rwrist -51.2462
rhand -4.75048 23.6715
rfingers 7.12502
rthumb 21.0331 -5.20787
lclavicle 1.49486e-013 -6.36111e-015
lhumerus -33.1872 29.7852 61.8371
lradius 145.076
lwrist 23.4392
lhand -15.3421 11.7045
lfingers 7.12502
lthumb 10.8348 41.405
rfemur -58.5307 3.77372 3.93621
rtibia 47.7741
rfoot 2.81889 16.4682
rtoes -14.727
lfemur 9.59441 19.7918 -23.9364
ltibia 33.1057
lfoot -31.9204 15.5615
ltoes -32.134
4969
root 2.72914 15.8816 3.7553 10.2799 9.97734 5.23616
lowerback 13.4046 -9.63008 -3.59484
upperback -0.700496 -12.638 11.4276
thorax -4.66399 -6.16821 16.7183
lowerneck -18.3033 0.791936 -10.6105
upperneck 8.88025 2.61023 7.81449
head 5.39564 1.51092 4.46457
rclavicle 2.78299e-014 -2.54444e-014
rhumerus -68.4586 -18.7926 -0.240854
rradius 67.6687
rwrist -52.3756
rhand -4.84553 23.0263
rfingers 7.12502
rthumb 20.9418 -5.86325
lclavicle 2.78299e-014 -2.54444e-014
lhumerus -32.9785 29.3818 62.5596
lradius 145.302
lwrist 23.5191
lhand -15.6853 11.6702
lfingers 7.12502
lthumb 10.5037 41.3877
rfemur -59.9803 3.10721 4.45016
rtibia 50.2267
rfoot 2.10533 16.6909
rtoes -13.4941
lfemur 9.75511 19.4305 -23.815
ltibia 33.0456
lfoot -32.1832 15.1036
ltoes -31.3065
4970
root 2.74105 15.8064 3.85693 10.5717 10.6247 6.18589
lowerback 13.6002 -8.91808 -3.12193
upperback -0.375269 -11.6116 10.8903
thorax -4.94138 -5.62863 15.7238
lowerneck -20.4044 -0.0969444 -10.3669
upperneck 8.866 1.54906 7.92851
head 5.832 1.04428 4.40277
rclavicle -7.87187e-014 1.01778e-013
rhumerus -71.6479 -19.7342 -0.90108
rradius 66.1711
rwrist -53.1896
rhand -4.10395 22.8186
rfingers 7.12502
rthumb 21.6541 -5.99048
lclavicle -7.87187e-014 1.01778e-013
lhumerus -31.0639 27.7604 64.4079
lradius 145.425
lwrist 23.8545
lhand -15.3984 11.6143
lfingers 7.12502
lthumb 10.7805 41.3177
rfemur -60.8873 1.09363 4.36046
rtibia 52.5885
rfoot 2.15831 17.3451
rtoes -9.53413
lfemur 10.28 18.6549 -24.5043
ltibia 32.8744
lfoot -32.5093 14.3745
ltoes -30.3495
4971
root 2.72359 15.7345 3.98972 10.837 11.391 6.85612
lowerback 13.7302 -9.9828 -4.57022
upperback -1.16433 -13.2335 11.7992
thorax -4.85065 -6.4209 17.9242
lowerneck -17.2283 1.13458 -12.885
upperneck 7.35477 3.50674 7.94
head 4.61711 1.90092 4.88445
rclavicle 7.07673e-014 -1.01778e-013
rhumerus -67.7352 -18.0229 -4.01546
rradius 64.2388
rwrist -53.9656
rhand -3.35081 22.7629
rfingers 7.12502
rthumb 22.3773 -5.9611
lclavicle 7.07673e-014 -1.01778e-013
lhumerus -35.4741 30.6973 63.088
lradius 146.407
lwrist 24.7373
lhand -15.374 11.57
lfingers 7.12502
lthumb 10.804 41.2721
rfemur -61.5686 -0.216327 4.34729
rtibia 54.7889
rfoot 1.0244 17.616
rtoes -9.77089
lfemur 10.7771 18.104 -24.523
ltibia 32.7969
lfoot -32.6516 13.455
ltoes -30.0289
